<?xml version="1.0" encoding="UTF-8"?>
<!DOCTYPE svg PUBLIC "-//W3C//DTD SVG 1.1//EN" "http://www.w3.org/Graphics/SVG/1.1/DTD/svg11.dtd">
<svg xmlns="http://www.w3.org/2000/svg" version="1.1" width="50px" height="50px" style="shape-rendering:geometricPrecision; text-rendering:geometricPrecision; image-rendering:optimizeQuality; fill-rule:evenodd; clip-rule:evenodd" xmlns:xlink="http://www.w3.org/1999/xlink">
<g><path style="opacity:0.615" fill="#000000" d="M 17.5,1.5 C 41.1541,0.318958 50.6541,11.319 46,34.5C 38.7573,46.8068 28.2573,50.6402 14.5,46C 2.19317,38.7573 -1.64016,28.2573 3,14.5C 6.16246,8.16411 10.9958,3.83077 17.5,1.5 Z M 18.5,4.5 C 36.9488,3.44852 45.4488,12.1152 44,30.5C 38.1981,42.9824 28.6981,47.1491 15.5,43C 4.9871,36.4639 1.82043,27.2972 6,15.5C 9.1476,10.5094 13.3143,6.84275 18.5,4.5 Z"/></g>
<g><path style="opacity:0.592" fill="#000000" d="M 22.5,16.5 C 23.8734,16.3433 25.2068,16.51 26.5,17C 30.5409,20.1854 33.5409,24.0188 35.5,28.5C 34.448,28.6495 33.448,28.4828 32.5,28C 29.9841,25.3167 27.3174,22.8167 24.5,20.5C 21.6826,22.8167 19.0159,25.3167 16.5,28C 15.552,28.4828 14.552,28.6495 13.5,28.5C 13.3505,27.448 13.5172,26.448 14,25.5C 17.0379,22.6306 19.8712,19.6306 22.5,16.5 Z"/></g>
</svg>
